<svg width="1280" height="1280" viewBox="0 0 1280 1280" xmlns="http://www.w3.org/2000/svg">
<g stroke="rgb(0, 0, 0)" stroke-width="0.5" stroke-linecap="round" stroke-linejoin="round" fill="transparent">
<path d="M625,596 L588,569 L603,613 L640,640 Z M625,596 L640,553 L654,596 L640,640 Z M676,613 L691,569 L654,596 L640,640 Z M676,666 L640,640 L654,683 L691,710 Z M625,683 L640,640 L654,683 L640,726 Z M625,683 L640,640 L603,666 L588,710 Z M594,640 L640,640 L603,666 L557,666 Z M594,640 L640,640 L603,613 L557,613 Z M506,596 L460,596 L423,569 L469,569 Z M506,683 L460,683 L423,710 L469,710 Z M446,640 L460,596 L474,640 L460,683 Z M423,710 L409,753 L423,797 L437,753 Z M423,710 L377,710 L340,683 L386,683 Z M409,666 L372,640 L386,683 L423,710 Z M409,753 L363,753 L326,780 L372,780 Z M506,737 L469,710 L483,753 L520,780 Z M520,780 L474,780 L437,753 L483,753 Z M557,753 L543,797 L506,824 L520,780 Z M640,780 L625,824 L640,867 L654,824 Z M594,780 L640,780 L603,753 L557,753 Z M594,867 L640,867 L603,894 L557,894 Z M543,851 L506,824 L520,867 L557,894 Z M474,867 L460,911 L423,937 L437,894 Z M423,851 L409,894 L423,937 L437,894 Z M326,780 L289,753 L303,797 L340,824 Z M303,797 L289,840 L252,867 L266,824 Z M289,894 L275,937 L289,981 L303,937 Z M289,894 L243,894 L206,867 L252,867 Z M206,867 L192,911 L155,937 L170,894 Z M192,824 L147,824 L110,851 L155,851 Z M192,824 L147,824 L110,797 L155,797 Z M192,964 L155,937 L170,981 L206,1008 Z M289,981 L243,981 L206,1008 L252,1008 Z M423,937 L409,981 L372,1008 L386,964 Z M423,937 L377,937 L340,964 L386,964 Z M423,937 L377,937 L340,911 L386,911 Z M446,1008 L409,981 L423,1024 L460,1051 Z M460,964 L446,1008 L460,1051 L474,1008 Z M506,964 L460,964 L423,937 L469,937 Z M506,911 L460,911 L423,937 L469,937 Z M557,981 L603,981 L640,1008 L594,1008 Z M588,937 L625,964 L640,1008 L603,981 Z M640,921 L625,964 L640,1008 L654,964 Z M691,937 L676,981 L640,1008 L654,964 Z M759,867 L796,894 L810,937 L773,911 Z M773,824 L759,867 L722,894 L736,851 Z M773,824 L819,824 L856,851 L810,851 Z M810,797 L856,797 L819,824 L773,824 Z M810,851 L796,894 L810,937 L824,894 Z M728,824 L773,824 L736,851 L691,851 Z M907,867 L893,911 L856,937 L870,894 Z M907,867 L953,867 L990,894 L944,894 Z M907,780 L953,780 L990,753 L944,753 Z M939,824 L953,780 L990,753 L976,797 Z M976,797 L1013,824 L1027,867 L990,840 Z M990,753 L1004,710 L1041,683 L1027,726 Z M990,753 L1036,753 L1073,726 L1027,726 Z M990,753 L1036,753 L1073,780 L1027,780 Z M976,710 L990,666 L1004,710 L990,753 Z M1124,797 L1169,797 L1206,824 L1161,824 Z M1124,710 L1169,710 L1206,683 L1161,683 Z M1155,753 L1192,780 L1206,824 L1169,797 Z M1192,780 L1206,737 L1220,780 L1206,824 Z M1206,455 L1243,482 L1257,526 L1220,499 Z M1192,412 L1206,368 L1220,412 L1206,455 Z M1192,499 L1206,455 L1220,499 L1206,542 Z M1124,482 L1169,482 L1206,455 L1161,455 Z M1109,385 L1146,412 L1161,455 L1124,428 Z M1073,412 L1087,368 L1124,342 L1109,385 Z M1013,455 L1027,412 L1041,455 L1027,499 Z M990,526 L1027,553 L1041,596 L1004,569 Z M990,526 L1036,526 L1073,499 L1027,499 Z M990,526 L1036,526 L1073,553 L1027,553 Z M976,482 L990,439 L1027,412 L1013,455 Z M976,569 L990,526 L1004,569 L990,613 Z M1124,569 L1169,569 L1206,596 L1161,596 Z M1155,526 L1169,482 L1206,455 L1192,499 Z M1073,640 L1109,666 L1124,710 L1087,683 Z M1073,640 L1087,596 L1124,569 L1109,613 Z M1192,640 L1206,596 L1220,640 L1206,683 Z M893,596 L907,553 L944,526 L930,569 Z M893,596 L939,596 L976,569 L930,569 Z M893,683 L930,710 L944,753 L907,726 Z M893,683 L939,683 L976,710 L930,710 Z M856,710 L870,666 L907,640 L893,683 Z M773,683 L819,683 L856,710 L810,710 Z M796,753 L810,710 L824,753 L810,797 Z M796,753 L810,710 L773,737 L759,780 Z M759,640 L773,596 L787,640 L773,683 Z M773,596 L819,596 L856,569 L810,569 Z M856,569 L893,596 L907,640 L870,613 Z M796,526 L759,499 L773,542 L810,569 Z M796,526 L810,482 L824,526 L810,569 Z M810,482 L856,482 L819,455 L773,455 Z M773,455 L736,428 L722,385 L759,412 Z M773,455 L819,455 L856,428 L810,428 Z M810,428 L824,385 L810,342 L796,385 Z M773,315 L787,271 L773,228 L759,271 Z M824,298 L870,298 L833,271 L787,271 Z M856,342 L870,298 L907,271 L893,315 Z M870,298 L833,271 L819,228 L856,255 Z M773,228 L736,201 L722,157 L759,184 Z M773,228 L819,228 L856,201 L810,201 Z M810,201 L824,157 L810,114 L796,157 Z M728,228 L773,228 L736,201 L691,201 Z M676,298 L722,298 L759,271 L713,271 Z M640,271 L654,228 L639,184 L625,228 Z M640,271 L654,228 L691,201 L676,244 Z M594,271 L557,244 L543,201 L580,228 Z M557,298 L603,298 L640,271 L594,271 Z M506,228 L520,184 L557,157 L543,201 Z M506,315 L460,315 L423,342 L469,342 Z M460,315 L474,271 L460,228 L446,271 Z M446,271 L460,228 L423,255 L409,298 Z M423,342 L386,315 L372,271 L409,298 Z M423,342 L377,342 L340,368 L386,368 Z M423,342 L377,342 L340,315 L386,315 Z M409,385 L423,342 L386,368 L372,412 Z M506,368 L460,368 L423,342 L469,342 Z M588,342 L603,298 L640,271 L625,315 Z M640,358 L654,315 L640,271 L625,315 Z M594,412 L640,412 L603,385 L557,385 Z M594,499 L640,499 L603,526 L557,526 Z M543,428 L557,385 L520,412 L506,455 Z M520,499 L474,499 L437,526 L483,526 Z M423,428 L437,385 L423,342 L409,385 Z M474,412 L437,385 L423,342 L460,368 Z M303,482 L266,455 L252,412 L289,439 Z M326,499 L340,455 L303,482 L289,526 Z M289,526 L243,526 L206,499 L252,499 Z M409,526 L363,526 L326,499 L372,499 Z M423,569 L437,526 L423,482 L409,526 Z M423,569 L377,569 L340,596 L386,596 Z M409,613 L423,569 L386,596 L372,640 Z M506,542 L520,499 L483,526 L469,569 Z M340,683 L326,726 L289,753 L303,710 Z M289,666 L275,710 L289,753 L303,710 Z M289,666 L243,666 L206,640 L252,640 Z M289,613 L303,569 L289,526 L275,569 Z M289,613 L243,613 L206,640 L252,640 Z M340,596 L303,569 L289,526 L326,553 Z M229,569 L243,526 L206,553 L192,596 Z M206,640 L170,613 L155,569 L192,596 Z M206,640 L192,683 L155,710 L170,666 Z M206,640 L161,640 L124,666 L170,666 Z M206,640 L161,640 L124,613 L170,613 Z M87,640 L73,683 L59,640 L73,596 Z M124,753 L110,797 L73,824 L87,780 Z M73,737 L59,780 L73,824 L87,780 Z M73,824 L59,867 L73,911 L87,867 Z M110,851 L73,824 L87,867 L124,894 Z M275,1078 L238,1051 L252,1095 L289,1122 Z M289,1122 L243,1122 L206,1095 L252,1095 Z M289,1035 L275,1078 L289,1122 L303,1078 Z M340,1051 L326,1095 L289,1122 L303,1078 Z M409,1122 L363,1122 L326,1095 L372,1095 Z M423,1165 L377,1165 L340,1192 L386,1192 Z M423,1078 L409,1122 L423,1165 L437,1122 Z M520,1095 L474,1095 L437,1122 L483,1122 Z M469,1165 L423,1165 L460,1192 L506,1192 Z M543,1165 L580,1192 L594,1235 L557,1209 Z M543,1165 L588,1165 L625,1192 L580,1192 Z M326,1149 L289,1122 L303,1165 L340,1192 Z M557,1122 L543,1165 L506,1192 L520,1149 Z M640,1149 L625,1192 L640,1235 L654,1192 Z M691,1165 L676,1209 L640,1235 L654,1192 Z M722,1122 L759,1149 L773,1192 L736,1165 Z M773,1051 L759,1095 L722,1122 L736,1078 Z M773,1051 L819,1051 L856,1078 L810,1078 Z M810,1078 L796,1122 L810,1165 L824,1122 Z M728,1051 L773,1051 L736,1078 L691,1078 Z M870,981 L856,1024 L819,1051 L833,1008 Z M856,937 L893,964 L907,1008 L870,981 Z M824,981 L870,981 L833,1008 L787,1008 Z M773,964 L759,1008 L773,1051 L787,1008 Z M944,981 L990,981 L953,1008 L907,1008 Z M990,1035 L976,1078 L990,1122 L1004,1078 Z M939,1051 L976,1078 L990,1122 L953,1095 Z M990,1122 L976,1165 L939,1192 L953,1149 Z M1027,1095 L1073,1095 L1036,1122 L990,1122 Z M944,1122 L990,1122 L953,1149 L907,1149 Z M1041,1051 L1027,1095 L990,1122 L1004,1078 Z M1004,937 L1050,937 L1087,911 L1041,911 Z M1004,937 L1050,937 L1087,964 L1041,964 Z M1087,964 L1073,1008 L1109,981 L1124,937 Z M1124,937 L1169,937 L1206,911 L1161,911 Z M1073,867 L1109,894 L1124,937 L1087,911 Z M1013,824 L1027,780 L1041,824 L1027,867 Z M990,894 L976,937 L990,981 L1004,937 Z M1109,894 L1124,851 L1161,824 L1146,867 Z M1206,824 L1220,780 L1257,753 L1243,797 Z M1192,867 L1206,824 L1220,867 L1206,911 Z M907,1095 L953,1095 L990,1122 L944,1122 Z M810,1165 L856,1165 L819,1192 L773,1192 Z M713,1235 L759,1235 L722,1262 L676,1262 Z M676,1209 L722,1209 L759,1235 L713,1235 Z M594,1235 L640,1235 L603,1262 L557,1262 Z M676,981 L722,981 L759,1008 L713,1008 Z M640,1008 L676,1035 L691,1078 L654,1051 Z M640,1008 L625,1051 L640,1095 L654,1051 Z M594,1008 L580,1051 L543,1078 L557,1035 Z M594,1095 L640,1095 L603,1122 L557,1122 Z M506,1051 L543,1078 L557,1122 L520,1095 Z M59,780 L22,753 L36,797 L73,824 Z M252,780 L238,824 L252,867 L266,824 Z M289,753 L243,753 L206,780 L252,780 Z M229,710 L192,683 L206,726 L243,753 Z M73,542 L87,499 L73,455 L59,499 Z M59,499 L73,455 L36,482 L22,526 Z M73,455 L87,412 L73,368 L59,412 Z M124,526 L87,499 L73,455 L110,482 Z M192,455 L147,455 L110,482 L155,482 Z M192,455 L147,455 L110,428 L155,428 Z M252,499 L266,455 L252,412 L238,455 Z M289,385 L303,342 L289,298 L275,342 Z M289,385 L243,385 L206,412 L252,412 Z M206,412 L170,385 L155,342 L192,368 Z M110,428 L124,385 L87,412 L73,455 Z M192,315 L206,271 L170,298 L155,342 Z M289,244 L303,201 L289,157 L275,201 Z M289,298 L243,298 L206,271 L252,271 Z M340,228 L303,201 L289,157 L326,184 Z M423,201 L437,157 L423,114 L409,157 Z M409,157 L363,157 L326,184 L372,184 Z M423,114 L377,114 L340,87 L386,87 Z M469,114 L423,114 L460,87 L506,87 Z M520,184 L474,184 L437,157 L483,157 Z M557,157 L520,130 L506,87 L543,114 Z M543,114 L557,70 L594,44 L580,87 Z M543,114 L588,114 L625,87 L580,87 Z M594,184 L639,184 L603,157 L557,157 Z M639,130 L654,87 L639,44 L625,87 Z M691,114 L654,87 L639,44 L676,70 Z M722,157 L736,114 L773,87 L759,130 Z M810,114 L856,114 L819,87 L773,87 Z M990,157 L953,130 L939,87 L976,114 Z M1027,184 L1073,184 L1036,157 L990,157 Z M944,157 L990,157 L953,130 L907,130 Z M1041,228 L1004,201 L990,157 L1027,184 Z M990,244 L1004,201 L990,157 L976,201 Z M939,228 L953,184 L990,157 L976,201 Z M907,184 L953,184 L990,157 L944,157 Z M1004,342 L1050,342 L1087,315 L1041,315 Z M1004,342 L1050,342 L1087,368 L1041,368 Z M944,298 L990,298 L953,271 L907,271 Z M907,412 L870,385 L856,342 L893,368 Z M907,412 L953,412 L990,385 L944,385 Z M990,385 L1004,342 L990,298 L976,342 Z M939,455 L976,482 L990,526 L953,499 Z M1087,315 L1124,342 L1109,298 L1073,271 Z M1124,342 L1169,342 L1206,368 L1161,368 Z M713,44 L759,44 L722,17 L676,17 Z M676,70 L722,70 L759,44 L713,44 Z M594,44 L639,44 L603,17 L557,17 Z M326,130 L340,87 L303,114 L289,157 Z M289,157 L243,157 L206,184 L252,184 Z M275,201 L289,157 L252,184 L238,228 Z M557,526 L520,499 L506,455 L543,482 Z M640,499 L654,455 L640,412 L625,455 Z M691,482 L736,482 L773,455 L728,455 Z M722,526 L736,482 L773,455 L759,499 Z M728,455 L773,455 L736,428 L691,428 Z M759,412 L773,368 L810,342 L796,385 Z M691,342 L654,315 L640,271 L676,298 Z M907,499 L953,499 L990,526 L944,526 Z M722,753 L759,780 L773,824 L736,797 Z M713,640 L759,640 L722,666 L676,666 Z M713,640 L759,640 L722,613 L676,613 Z M691,797 L736,797 L773,824 L728,824 Z M409,894 L372,867 L386,911 L423,937 Z " fill="rgb(221, 234, 246)"/>
<path d="M625,596 L640,553 L603,526 L588,569 Z M676,613 L722,613 L736,569 L691,569 Z M676,666 L722,666 L736,710 L691,710 Z M625,683 L588,710 L603,753 L640,726 Z M594,640 L557,613 L520,640 L557,666 Z M543,569 L506,596 L520,640 L557,613 Z M543,569 L506,542 L469,569 L506,596 Z M543,569 L557,526 L520,499 L506,542 Z M543,569 L588,569 L603,613 L557,613 Z M543,569 L588,569 L603,526 L557,526 Z M506,596 L460,596 L474,640 L520,640 Z M506,683 L460,683 L474,640 L520,640 Z M446,640 L409,666 L423,710 L460,683 Z M446,640 L409,613 L372,640 L409,666 Z M446,640 L460,596 L423,569 L409,613 Z M423,710 L377,710 L363,753 L409,753 Z M409,753 L372,780 L386,824 L423,797 Z M377,710 L363,753 L326,726 L340,683 Z M469,710 L423,710 L437,753 L483,753 Z M520,780 L474,780 L460,824 L506,824 Z M543,710 L506,737 L520,780 L557,753 Z M543,710 L506,683 L469,710 L506,737 Z M543,710 L557,666 L520,640 L506,683 Z M543,710 L588,710 L603,753 L557,753 Z M543,710 L588,710 L603,666 L557,666 Z M654,824 L640,867 L676,894 L691,851 Z M676,753 L640,780 L654,824 L691,797 Z M676,753 L640,726 L603,753 L640,780 Z M676,753 L691,710 L654,683 L640,726 Z M676,753 L722,753 L736,797 L691,797 Z M676,753 L722,753 L736,710 L691,710 Z M594,780 L580,824 L543,797 L557,753 Z M594,780 L640,780 L625,824 L580,824 Z M580,824 L543,851 L557,894 L594,867 Z M580,824 L543,797 L506,824 L543,851 Z M580,824 L625,824 L640,867 L594,867 Z M506,824 L460,824 L474,867 L520,867 Z M520,867 L474,867 L460,911 L506,911 Z M460,824 L423,851 L437,894 L474,867 Z M460,824 L423,797 L386,824 L423,851 Z M423,851 L409,894 L372,867 L386,824 Z M474,780 L460,824 L423,797 L437,753 Z M386,824 L340,824 L326,867 L372,867 Z M372,780 L326,780 L340,824 L386,824 Z M372,867 L326,867 L340,911 L386,911 Z M340,824 L326,867 L289,840 L303,797 Z M326,867 L289,894 L303,937 L340,911 Z M326,867 L289,840 L252,867 L289,894 Z M289,894 L243,894 L229,937 L275,937 Z M238,824 L192,824 L206,867 L252,867 Z M192,824 L155,851 L170,894 L206,867 Z M170,894 L124,894 L110,937 L155,937 Z M243,894 L229,937 L192,911 L206,867 Z M155,937 L110,937 L124,981 L170,981 Z M229,937 L192,964 L206,1008 L243,981 Z M229,937 L192,911 L155,937 L192,964 Z M275,937 L229,937 L243,981 L289,981 Z M252,1008 L206,1008 L192,1051 L238,1051 Z M326,1008 L289,1035 L303,1078 L340,1051 Z M326,1008 L289,981 L252,1008 L289,1035 Z M340,964 L326,1008 L289,981 L303,937 Z M377,937 L340,911 L303,937 L340,964 Z M386,964 L340,964 L326,1008 L372,1008 Z M372,1008 L326,1008 L340,1051 L386,1051 Z M386,1051 L340,1051 L326,1095 L372,1095 Z M409,981 L372,1008 L386,1051 L423,1024 Z M460,1051 L423,1078 L437,1122 L474,1095 Z M460,1051 L423,1024 L386,1051 L423,1078 Z M460,964 L446,1008 L409,981 L423,937 Z M506,964 L460,964 L474,1008 L520,1008 Z M520,1008 L506,1051 L543,1078 L557,1035 Z M520,1008 L474,1008 L460,1051 L506,1051 Z M543,937 L506,964 L520,1008 L557,981 Z M543,937 L506,911 L469,937 L506,964 Z M543,937 L588,937 L603,981 L557,981 Z M557,981 L594,1008 L557,1035 L520,1008 Z M557,894 L543,937 L506,911 L520,867 Z M557,894 L603,894 L588,937 L543,937 Z M603,894 L588,937 L625,964 L640,921 Z M640,867 L676,894 L640,921 L603,894 Z M676,894 L640,921 L654,964 L691,937 Z M676,894 L722,894 L736,937 L691,937 Z M691,937 L736,937 L722,981 L676,981 Z M691,851 L736,851 L722,894 L676,894 Z M736,937 L722,981 L759,1008 L773,964 Z M759,867 L722,894 L736,937 L773,911 Z M773,824 L759,867 L796,894 L810,851 Z M810,797 L856,797 L870,753 L824,753 Z M810,851 L856,851 L870,894 L824,894 Z M856,797 L893,824 L856,851 L819,824 Z M856,797 L870,753 L907,780 L893,824 Z M893,824 L856,851 L870,894 L907,867 Z M893,824 L939,824 L953,867 L907,867 Z M893,824 L939,824 L953,780 L907,780 Z M907,867 L893,911 L930,937 L944,894 Z M939,824 L976,797 L990,840 L953,867 Z M953,867 L990,894 L1027,867 L990,840 Z M976,797 L990,753 L1027,780 L1013,824 Z M1027,726 L1073,726 L1087,683 L1041,683 Z M1027,780 L1073,780 L1087,824 L1041,824 Z M1036,753 L1073,780 L1109,753 L1073,726 Z M1073,726 L1087,683 L1124,710 L1109,753 Z M1073,780 L1109,753 L1124,797 L1087,824 Z M1087,824 L1124,851 L1161,824 L1124,797 Z M1109,753 L1155,753 L1169,797 L1124,797 Z M1109,753 L1155,753 L1169,710 L1124,710 Z M1155,753 L1169,710 L1206,737 L1192,780 Z M1169,710 L1206,737 L1243,710 L1206,683 Z M1206,683 L1220,640 L1257,666 L1243,710 Z M1206,737 L1243,710 L1257,753 L1220,780 Z M1206,596 L1243,569 L1257,613 L1220,640 Z M1206,542 L1220,499 L1257,526 L1243,569 Z M1146,412 L1192,412 L1206,455 L1161,455 Z M1146,412 L1192,412 L1206,368 L1161,368 Z M1109,385 L1124,342 L1161,368 L1146,412 Z M1087,455 L1124,482 L1161,455 L1124,428 Z M1073,412 L1109,385 L1124,428 L1087,455 Z M1073,499 L1087,455 L1124,482 L1109,526 Z M1027,412 L1073,412 L1087,455 L1041,455 Z M1027,412 L1073,412 L1087,368 L1041,368 Z M1027,499 L1073,499 L1087,455 L1041,455 Z M976,482 L1013,455 L1027,499 L990,526 Z M1027,553 L1073,553 L1087,596 L1041,596 Z M1036,526 L1073,553 L1109,526 L1073,499 Z M1073,553 L1109,526 L1124,569 L1087,596 Z M1109,526 L1155,526 L1169,569 L1124,569 Z M1109,526 L1155,526 L1169,482 L1124,482 Z M1155,526 L1192,499 L1206,542 L1169,569 Z M1169,569 L1206,596 L1243,569 L1206,542 Z M1109,613 L1124,569 L1161,596 L1146,640 Z M1073,640 L1109,666 L1146,640 L1109,613 Z M1146,640 L1192,640 L1206,683 L1161,683 Z M1146,640 L1192,640 L1206,596 L1161,596 Z M1109,666 L1146,640 L1161,683 L1124,710 Z M1027,640 L1073,640 L1087,683 L1041,683 Z M1027,640 L1073,640 L1087,596 L1041,596 Z M990,666 L1027,640 L1041,683 L1004,710 Z M990,613 L1004,569 L1041,596 L1027,640 Z M953,640 L990,666 L1027,640 L990,613 Z M939,596 L976,569 L990,613 L953,640 Z M939,683 L953,640 L990,666 L976,710 Z M893,596 L939,596 L953,640 L907,640 Z M893,683 L939,683 L953,640 L907,640 Z M856,710 L893,683 L907,726 L870,753 Z M930,710 L976,710 L990,753 L944,753 Z M870,753 L907,780 L944,753 L907,726 Z M819,683 L833,640 L870,666 L856,710 Z M810,710 L856,710 L870,753 L824,753 Z M773,683 L810,710 L773,737 L736,710 Z M773,683 L819,683 L833,640 L787,640 Z M796,753 L759,780 L773,824 L810,797 Z M759,640 L722,666 L736,710 L773,683 Z M759,640 L773,596 L736,569 L722,613 Z M773,596 L736,569 L773,542 L810,569 Z M773,596 L819,596 L833,640 L787,640 Z M833,640 L870,666 L907,640 L870,613 Z M819,596 L856,569 L870,613 L833,640 Z M856,569 L870,526 L907,553 L893,596 Z M870,526 L907,553 L944,526 L907,499 Z M810,569 L856,569 L870,526 L824,526 Z M796,526 L810,482 L773,455 L759,499 Z M810,482 L856,482 L870,526 L824,526 Z M773,455 L810,428 L796,385 L759,412 Z M856,482 L893,455 L907,499 L870,526 Z M856,482 L819,455 L856,428 L893,455 Z M893,455 L907,412 L870,385 L856,428 Z M893,455 L939,455 L953,499 L907,499 Z M893,455 L939,455 L953,412 L907,412 Z M810,428 L856,428 L870,385 L824,385 Z M824,385 L870,385 L856,342 L810,342 Z M810,342 L824,298 L787,271 L773,315 Z M810,342 L856,342 L870,298 L824,298 Z M773,368 L736,342 L773,315 L810,342 Z M893,368 L856,342 L893,315 L930,342 Z M870,298 L907,271 L893,228 L856,255 Z M856,255 L819,228 L856,201 L893,228 Z M907,271 L953,271 L939,228 L893,228 Z M787,271 L833,271 L819,228 L773,228 Z M773,228 L810,201 L796,157 L759,184 Z M759,184 L722,157 L759,130 L796,157 Z M810,201 L856,201 L870,157 L824,157 Z M691,201 L736,201 L722,157 L676,157 Z M713,271 L728,228 L691,201 L676,244 Z M713,271 L759,271 L773,228 L728,228 Z M676,298 L640,271 L676,244 L713,271 Z M654,228 L691,201 L676,157 L639,184 Z M594,271 L640,271 L625,228 L580,228 Z M580,228 L594,184 L557,157 L543,201 Z M580,228 L625,228 L639,184 L594,184 Z M557,298 L520,271 L557,244 L594,271 Z M520,271 L557,244 L543,201 L506,228 Z M520,271 L474,271 L460,228 L506,228 Z M506,228 L460,228 L474,184 L520,184 Z M506,315 L460,315 L474,271 L520,271 Z M460,228 L423,201 L386,228 L423,255 Z M460,228 L474,184 L437,157 L423,201 Z M460,315 L423,342 L409,298 L446,271 Z M409,298 L423,255 L386,228 L372,271 Z M386,315 L340,315 L326,271 L372,271 Z M377,342 L340,315 L303,342 L340,368 Z M520,412 L474,412 L460,368 L506,368 Z M543,342 L506,315 L469,342 L506,368 Z M543,342 L557,298 L520,271 L506,315 Z M543,342 L588,342 L603,298 L557,298 Z M557,385 L520,412 L506,368 L543,342 Z M557,385 L603,385 L588,342 L543,342 Z M603,385 L640,358 L625,315 L588,342 Z M640,412 L603,385 L640,358 L676,385 Z M654,455 L691,428 L676,385 L640,412 Z M676,385 L691,342 L654,315 L640,358 Z M676,385 L722,385 L736,342 L691,342 Z M580,455 L543,428 L506,455 L543,482 Z M580,455 L594,412 L557,385 L543,428 Z M580,455 L625,455 L640,412 L594,412 Z M594,499 L557,526 L543,482 L580,455 Z M594,499 L640,499 L625,455 L580,455 Z M506,455 L460,455 L474,412 L520,412 Z M520,499 L474,499 L460,455 L506,455 Z M460,455 L423,428 L386,455 L423,482 Z M460,455 L474,412 L437,385 L423,428 Z M474,499 L437,526 L423,482 L460,455 Z M423,428 L386,455 L372,412 L409,385 Z M386,455 L340,455 L326,412 L372,412 Z M372,412 L326,412 L340,368 L386,368 Z M372,499 L326,499 L340,455 L386,455 Z M340,455 L303,482 L289,439 L326,412 Z M326,412 L289,385 L252,412 L289,439 Z M326,412 L340,368 L303,342 L289,385 Z M289,526 L303,482 L266,455 L252,499 Z M363,526 L326,499 L289,526 L326,553 Z M377,569 L340,596 L326,553 L363,526 Z M409,526 L423,482 L386,455 L372,499 Z M423,569 L377,569 L363,526 L409,526 Z M469,569 L423,569 L437,526 L483,526 Z M372,640 L326,640 L340,683 L386,683 Z M372,640 L326,640 L340,596 L386,596 Z M326,640 L289,666 L303,710 L340,683 Z M326,640 L289,613 L252,640 L289,666 Z M326,640 L340,596 L303,569 L289,613 Z M289,666 L243,666 L229,710 L275,710 Z M289,613 L243,613 L229,569 L275,569 Z M275,569 L229,569 L243,526 L289,526 Z M243,613 L206,640 L192,596 L229,569 Z M192,596 L206,553 L170,526 L155,569 Z M170,666 L124,666 L110,710 L155,710 Z M243,666 L229,710 L192,683 L206,640 Z M170,613 L124,613 L110,569 L155,569 Z M192,683 L155,710 L170,753 L206,726 Z M161,640 L124,613 L87,640 L124,666 Z M124,666 L110,710 L73,683 L87,640 Z M124,613 L87,640 L73,596 L110,569 Z M110,569 L73,542 L36,569 L73,596 Z M110,569 L124,526 L87,499 L73,542 Z M73,596 L27,596 L13,640 L59,640 Z M73,683 L27,683 L13,640 L59,640 Z M110,710 L73,737 L87,780 L124,753 Z M110,710 L73,683 L36,710 L73,737 Z M73,737 L59,780 L22,753 L36,710 Z M155,710 L110,710 L124,753 L170,753 Z M170,753 L124,753 L110,797 L155,797 Z M206,780 L192,824 L155,797 L170,753 Z M147,824 L110,797 L73,824 L110,851 Z M124,894 L110,937 L73,911 L87,867 Z M155,851 L110,851 L124,894 L170,894 Z M206,1008 L192,1051 L155,1024 L170,981 Z M238,1051 L192,1051 L206,1095 L252,1095 Z M289,1035 L275,1078 L238,1051 L252,1008 Z M363,1122 L326,1149 L340,1192 L377,1165 Z M363,1122 L326,1095 L289,1122 L326,1149 Z M409,1122 L363,1122 L377,1165 L423,1165 Z M423,1165 L460,1192 L423,1219 L386,1192 Z M423,1078 L409,1122 L372,1095 L386,1051 Z M483,1122 L469,1165 L506,1192 L520,1149 Z M483,1122 L437,1122 L423,1165 L469,1165 Z M520,1095 L557,1122 L520,1149 L483,1122 Z M506,1192 L460,1192 L474,1235 L520,1235 Z M543,1165 L506,1192 L520,1235 L557,1209 Z M557,1209 L594,1235 L557,1262 L520,1235 Z M580,1192 L625,1192 L640,1235 L594,1235 Z M557,1122 L603,1122 L588,1165 L543,1165 Z M603,1122 L588,1165 L625,1192 L640,1149 Z M640,1095 L676,1122 L640,1149 L603,1122 Z M676,1122 L640,1149 L654,1192 L691,1165 Z M676,1122 L722,1122 L736,1165 L691,1165 Z M691,1165 L736,1165 L722,1209 L676,1209 Z M691,1078 L736,1078 L722,1122 L676,1122 Z M736,1165 L722,1209 L759,1235 L773,1192 Z M759,1095 L796,1122 L759,1149 L722,1122 Z M773,1051 L759,1095 L796,1122 L810,1078 Z M810,1078 L856,1078 L870,1122 L824,1122 Z M787,1008 L833,1008 L819,1051 L773,1051 Z M856,1024 L893,1051 L856,1078 L819,1051 Z M870,981 L856,1024 L893,1051 L907,1008 Z M907,1008 L953,1008 L939,1051 L893,1051 Z M810,937 L773,964 L787,1008 L824,981 Z M810,937 L856,937 L870,981 L824,981 Z M773,911 L810,937 L773,964 L736,937 Z M824,894 L870,894 L856,937 L810,937 Z M893,1051 L856,1078 L870,1122 L907,1095 Z M893,1051 L939,1051 L953,1095 L907,1095 Z M953,1008 L939,1051 L976,1078 L990,1035 Z M990,981 L1027,1008 L990,1035 L953,1008 Z M1073,1008 L1109,981 L1124,1024 L1087,1051 Z M1041,1051 L1087,1051 L1073,1095 L1027,1095 Z M1027,1008 L990,1035 L1004,1078 L1041,1051 Z M1027,1008 L1073,1008 L1087,1051 L1041,1051 Z M1041,964 L1087,964 L1073,1008 L1027,1008 Z M1004,937 L990,981 L1027,1008 L1041,964 Z M1124,937 L1109,981 L1146,1008 L1161,964 Z M1050,937 L1087,964 L1124,937 L1087,911 Z M1073,867 L1087,824 L1124,851 L1109,894 Z M1027,867 L1073,867 L1087,911 L1041,911 Z M1027,867 L1073,867 L1087,824 L1041,824 Z M990,894 L1027,867 L1041,911 L1004,937 Z M944,894 L990,894 L976,937 L930,937 Z M930,937 L893,964 L907,1008 L944,981 Z M930,937 L976,937 L990,981 L944,981 Z M893,911 L930,937 L893,964 L856,937 Z M1109,894 L1146,867 L1161,911 L1124,937 Z M1146,867 L1192,867 L1206,911 L1161,911 Z M1146,867 L1192,867 L1206,824 L1161,824 Z M907,1149 L953,1149 L939,1192 L893,1192 Z M907,1095 L944,1122 L907,1149 L870,1122 Z M870,1122 L856,1165 L893,1192 L907,1149 Z M856,1165 L893,1192 L856,1219 L819,1192 Z M824,1122 L870,1122 L856,1165 L810,1165 Z M796,1122 L759,1149 L773,1192 L810,1165 Z M773,1192 L819,1192 L833,1235 L787,1235 Z M676,1209 L713,1235 L676,1262 L640,1235 Z M713,1008 L676,1035 L691,1078 L728,1051 Z M713,1008 L759,1008 L773,1051 L728,1051 Z M676,981 L713,1008 L676,1035 L640,1008 Z M654,1051 L640,1095 L676,1122 L691,1078 Z M594,1008 L640,1008 L625,1051 L580,1051 Z M580,1051 L543,1078 L557,1122 L594,1095 Z M580,1051 L625,1051 L640,1095 L594,1095 Z M506,1051 L460,1051 L474,1095 L520,1095 Z M243,753 L206,726 L170,753 L206,780 Z M252,780 L206,780 L192,824 L238,824 Z M289,753 L252,780 L266,824 L303,797 Z M275,710 L229,710 L243,753 L289,753 Z M363,753 L326,726 L289,753 L326,780 Z M73,542 L36,569 L22,526 L59,499 Z M170,526 L124,526 L110,482 L155,482 Z M206,499 L170,526 L155,482 L192,455 Z M155,569 L110,569 L124,526 L170,526 Z M243,526 L206,499 L170,526 L206,553 Z M192,455 L206,412 L170,385 L155,428 Z M252,499 L206,499 L192,455 L238,455 Z M238,455 L192,455 L206,412 L252,412 Z M289,385 L243,385 L229,342 L275,342 Z M243,385 L206,412 L192,368 L229,342 Z M170,385 L124,385 L110,342 L155,342 Z M155,342 L110,342 L124,298 L170,298 Z M155,428 L110,428 L124,385 L170,385 Z M124,385 L87,412 L73,368 L110,342 Z M147,455 L110,428 L73,455 L110,482 Z M206,271 L170,298 L155,255 L192,228 Z M252,271 L206,271 L192,228 L238,228 Z M238,228 L192,228 L206,184 L252,184 Z M289,244 L252,271 L238,228 L275,201 Z M326,271 L289,244 L252,271 L289,298 Z M326,271 L340,228 L303,201 L289,244 Z M275,342 L229,342 L243,298 L289,298 Z M229,342 L192,315 L155,342 L192,368 Z M229,342 L243,298 L206,271 L192,315 Z M340,315 L303,342 L289,298 L326,271 Z M372,271 L326,271 L340,228 L386,228 Z M386,228 L340,228 L326,184 L372,184 Z M423,201 L386,228 L372,184 L409,157 Z M409,157 L363,157 L377,114 L423,114 Z M423,114 L386,87 L423,60 L460,87 Z M483,157 L520,130 L506,87 L469,114 Z M483,157 L437,157 L423,114 L469,114 Z M520,184 L483,157 L520,130 L557,157 Z M557,157 L603,157 L588,114 L543,114 Z M543,114 L557,70 L520,44 L506,87 Z M603,157 L639,130 L625,87 L588,114 Z M639,184 L603,157 L639,130 L676,157 Z M676,157 L691,114 L654,87 L639,130 Z M676,157 L722,157 L736,114 L691,114 Z M691,114 L736,114 L722,70 L676,70 Z M736,114 L773,87 L759,44 L722,70 Z M773,87 L819,87 L833,44 L787,44 Z M856,114 L819,87 L856,60 L893,87 Z M870,157 L907,130 L893,87 L856,114 Z M907,130 L953,130 L939,87 L893,87 Z M1073,271 L1087,228 L1124,255 L1109,298 Z M1041,228 L1087,228 L1073,184 L1027,184 Z M1027,271 L1041,228 L1004,201 L990,244 Z M1027,271 L1073,271 L1087,228 L1041,228 Z M1041,315 L1087,315 L1073,271 L1027,271 Z M990,298 L953,271 L990,244 L1027,271 Z M953,271 L990,244 L976,201 L939,228 Z M893,228 L907,184 L870,157 L856,201 Z M893,228 L939,228 L953,184 L907,184 Z M907,184 L870,157 L907,130 L944,157 Z M1004,342 L1041,315 L1027,271 L990,298 Z M930,342 L944,298 L907,271 L893,315 Z M930,342 L976,342 L990,298 L944,298 Z M944,385 L990,385 L976,342 L930,342 Z M907,412 L944,385 L930,342 L893,368 Z M990,385 L1004,342 L1041,368 L1027,412 Z M953,412 L990,439 L1027,412 L990,385 Z M939,455 L953,412 L990,439 L976,482 Z M1050,342 L1087,368 L1124,342 L1087,315 Z M1124,342 L1161,315 L1146,271 L1109,298 Z M824,157 L870,157 L856,114 L810,114 Z M796,157 L810,114 L773,87 L759,130 Z M676,70 L639,44 L676,17 L713,44 Z M557,70 L520,44 L557,17 L594,44 Z M580,87 L625,87 L639,44 L594,44 Z M506,87 L460,87 L474,44 L520,44 Z M363,157 L326,130 L289,157 L326,184 Z M363,157 L377,114 L340,87 L326,130 Z M676,526 L640,553 L654,596 L691,569 Z M676,526 L640,499 L603,526 L640,553 Z M676,526 L691,482 L654,455 L640,499 Z M676,526 L722,526 L736,569 L691,569 Z M676,526 L722,526 L736,482 L691,482 Z M691,482 L654,455 L691,428 L728,455 Z M722,526 L759,499 L773,542 L736,569 Z M691,428 L736,428 L722,385 L676,385 Z M759,412 L773,368 L736,342 L722,385 Z M736,342 L773,315 L759,271 L722,298 Z M691,342 L736,342 L722,298 L676,298 Z M722,753 L736,710 L773,737 L759,780 Z M713,640 L676,613 L640,640 L676,666 Z M930,569 L976,569 L990,526 L944,526 Z M691,797 L728,824 L691,851 L654,824 Z " fill="rgb(221, 210, 170)"/>
</g></svg>